<svg width="35" height="35" viewBox="0 0 35 35" fill="none" xmlns="http://www.w3.org/2000/svg">
<path d="M30.5518 19.1806C30.1668 19.1806 29.7643 19.0581 29.3793 18.9706C28.5996 18.7987 27.8335 18.5707 27.0868 18.2881C26.2749 17.9927 25.3825 18.008 24.5813 18.3311C23.7801 18.6542 23.1267 19.2622 22.7468 20.0381L22.3618 20.8256C20.6573 19.8774 19.091 18.6997 17.7068 17.3256C16.3326 15.9413 15.155 14.375 14.2068 12.6706L14.9418 12.1806C15.7177 11.8007 16.3257 11.1472 16.6487 10.346C16.9718 9.5448 16.9871 8.6524 16.6918 7.84055C16.4139 7.09229 16.1859 6.32645 16.0093 5.54806C15.9218 5.16305 15.8518 4.76056 15.7993 4.35806C15.5868 3.12539 14.9411 2.0091 13.9786 1.21022C13.0161 0.411344 11.8 -0.0176292 10.5493 0.00055528H5.29929C4.5451 -0.00652616 3.79823 0.148979 3.10953 0.456484C2.42084 0.763988 1.80649 1.21627 1.3083 1.78255C0.810106 2.34882 0.439778 3.01579 0.222522 3.73805C0.00526521 4.46032 -0.0538186 5.22091 0.0492926 5.96805C0.981584 13.2995 4.32984 20.1113 9.56518 25.3277C14.8005 30.544 21.6245 33.8674 28.9593 34.7731H29.6243C30.9148 34.7749 32.1607 34.3015 33.1243 33.4431C33.6779 32.9479 34.1202 32.3409 34.4219 31.6621C34.7235 30.9834 34.8777 30.2483 34.8743 29.5056V24.2556C34.8529 23.04 34.4102 21.8695 33.6219 20.944C32.8336 20.0184 31.7485 19.3952 30.5518 19.1806ZM31.4268 29.6806C31.4265 29.929 31.3733 30.1746 31.2707 30.4009C31.1681 30.6272 31.0185 30.8291 30.8318 30.9931C30.6363 31.1619 30.4076 31.288 30.1605 31.3633C29.9134 31.4387 29.6533 31.4616 29.3968 31.4306C22.8429 30.5902 16.7552 27.5919 12.094 22.9086C7.43289 18.2252 4.46351 12.1234 3.65429 5.56555C3.62644 5.30921 3.65085 5.04988 3.72605 4.80324C3.80124 4.5566 3.92566 4.32776 4.09179 4.13056C4.25579 3.94389 4.45765 3.79428 4.68395 3.69169C4.91026 3.58909 5.15582 3.53587 5.40429 3.53556H10.6543C11.0612 3.5265 11.4586 3.65959 11.778 3.91193C12.0975 4.16426 12.3189 4.52005 12.4043 4.91806C12.4743 5.39639 12.5618 5.86889 12.6668 6.33555C12.869 7.25806 13.138 8.16462 13.4718 9.04805L11.0218 10.1856C10.8123 10.2817 10.6239 10.4182 10.4673 10.5873C10.3108 10.7565 10.1891 10.9549 10.1095 11.1711C10.0298 11.3874 9.99362 11.6173 10.003 11.8476C10.0124 12.0779 10.0672 12.304 10.1643 12.5131C12.6829 17.9079 17.0195 22.2445 22.4143 24.7631C22.8403 24.9381 23.3182 24.9381 23.7443 24.7631C23.9625 24.685 24.1631 24.5643 24.3343 24.4081C24.5056 24.2519 24.6441 24.0632 24.7418 23.8531L25.8268 21.4031C26.7315 21.7266 27.6548 21.9954 28.5918 22.2081C29.0585 22.3131 29.531 22.4006 30.0093 22.4706C30.4073 22.5559 30.7631 22.7774 31.0154 23.0968C31.2678 23.4162 31.4008 23.8136 31.3918 24.2206L31.4268 29.6806Z" fill="white"/>
</svg>
