<svg width="32" height="39" viewBox="0 0 32 39" fill="none" xmlns="http://www.w3.org/2000/svg">
<path d="M15.75 33.0741L24.412 24.412C29.1959 19.6282 29.1959 11.8719 24.412 7.08794C19.6282 2.30401 11.8719 2.30401 7.08794 7.08794C2.30402 11.8719 2.30402 19.6282 7.08794 24.412L15.75 33.0741ZM15.75 38.0238L4.61307 26.887C-1.53769 20.7361 -1.53769 10.7638 4.61307 4.61307C10.7638 -1.53769 20.7361 -1.53769 26.887 4.61307C33.0377 10.7638 33.0377 20.7361 26.887 26.887L15.75 38.0238ZM15.75 19.25C17.6831 19.25 19.25 17.683 19.25 15.75C19.25 13.817 17.6831 12.25 15.75 12.25C13.8169 12.25 12.25 13.817 12.25 15.75C12.25 17.683 13.8169 19.25 15.75 19.25ZM15.75 22.75C11.884 22.75 8.75 19.6159 8.75 15.75C8.75 11.884 11.884 8.75 15.75 8.75C19.6159 8.75 22.75 11.884 22.75 15.75C22.75 19.6159 19.6159 22.75 15.75 22.75Z" fill="white"/>
</svg>
