<svg width="39" height="35" viewBox="0 0 39 35" fill="none" xmlns="http://www.w3.org/2000/svg">
<path d="M32.7485 12.4742L32.3169 13.4641C32.0012 14.1889 30.9988 14.1889 30.6829 13.4641L30.2516 12.4742C29.4824 10.7091 28.0971 9.30372 26.3685 8.53489L25.039 7.94364C24.3203 7.62393 24.3203 6.57792 25.039 6.25821L26.2941 5.7C28.0672 4.91139 29.4774 3.45403 30.2332 1.62895L30.6763 0.559179C30.9852 -0.186393 32.0149 -0.186393 32.3236 0.559179L32.7667 1.62895C33.5227 3.45403 34.9328 4.91139 36.7059 5.7L37.9608 6.25821C38.6797 6.57792 38.6797 7.62393 37.9608 7.94364L36.6315 8.53489C34.9029 9.30372 33.5176 10.7091 32.7485 12.4742ZM0 5.25C0 4.28351 0.78351 3.5 1.75 3.5H21V7H4.3841L17.5 18.6585L25.1967 11.817L27.5221 14.433L17.5 23.3415L3.5 10.897V31.5H31.5V17.5H35V33.25C35 34.2165 34.2165 35 33.25 35H1.75C0.78351 35 0 34.2165 0 33.25V5.25Z" fill="white"/>
</svg>
