<svg width="42" height="42" viewBox="0 0 42 42" fill="none" xmlns="http://www.w3.org/2000/svg">
<path d="M12.693 32.3645L13.96 33.1047C16.0967 34.3508 18.5268 35.005 21.0003 35C23.7692 35 26.476 34.1789 28.7782 32.6405C31.0805 31.1022 32.875 28.9157 33.9346 26.3575C34.9942 23.7994 35.2715 20.9844 34.7313 18.2687C34.1911 15.553 32.8577 13.0584 30.8998 11.1005C28.9418 9.14254 26.4473 7.80917 23.7315 7.26898C21.0158 6.72878 18.2009 7.00603 15.6427 8.06566C13.0845 9.12528 10.898 10.9197 9.35969 13.222C7.82135 15.5243 7.00027 18.231 7.00027 21C7.00027 23.513 7.66002 25.9227 8.89727 28.042L9.63577 29.309L8.49302 33.5107L12.693 32.3645ZM3.50727 38.5L5.87327 29.806C4.31426 27.1335 3.49519 24.094 3.50027 21C3.50027 11.3347 11.335 3.49997 21.0003 3.49997C30.6655 3.49997 38.5003 11.3347 38.5003 21C38.5003 30.6652 30.6655 38.5 21.0003 38.5C17.9076 38.505 14.8694 37.6865 12.1978 36.1287L3.50727 38.5ZM14.6845 12.789C14.919 12.7715 15.1553 12.7715 15.3898 12.782C15.4843 12.789 15.5788 12.7995 15.6733 12.81C15.9515 12.8415 16.2578 13.0112 16.361 13.2457C16.8825 14.4287 17.39 15.6205 17.88 16.8157C17.9885 17.0817 17.9238 17.423 17.7173 17.7555C17.5752 17.9803 17.4216 18.1976 17.257 18.4065C17.0593 18.6602 16.634 19.1257 16.634 19.1257C16.634 19.1257 16.4608 19.3322 16.5273 19.5895C16.5518 19.6875 16.6323 19.8292 16.7058 19.9482L16.809 20.1145C17.257 20.8617 17.859 21.6195 18.594 22.3335C18.804 22.5365 19.0088 22.7447 19.2293 22.939C20.0483 23.6617 20.9758 24.2515 21.9768 24.689L21.9855 24.6925C22.1343 24.7572 22.2095 24.7922 22.4265 24.885C22.535 24.9305 22.647 24.9707 22.7608 25.0005C22.8783 25.0304 23.0021 25.0248 23.1164 24.9843C23.2308 24.9438 23.3305 24.8702 23.403 24.773C24.67 23.2382 24.7855 23.1385 24.796 23.1385V23.142C24.884 23.0599 24.9886 22.9976 25.1027 22.9592C25.2168 22.9209 25.3378 22.9074 25.4575 22.9197C25.5625 22.9267 25.6693 22.946 25.7673 22.9897C26.6965 23.415 28.2173 24.0782 28.2173 24.0782L29.2358 24.535C29.4073 24.6172 29.563 24.8115 29.5683 24.9987C29.5753 25.116 29.5858 25.305 29.5455 25.6515C29.4895 26.1047 29.353 26.649 29.2165 26.9342C29.123 27.1289 28.999 27.3073 28.849 27.4627C28.6724 27.6481 28.4791 27.8168 28.2715 27.9667C28.1997 28.0207 28.1268 28.0732 28.0528 28.1242C27.8351 28.2623 27.6115 28.3908 27.3825 28.5092C26.932 28.7485 26.4343 28.886 25.9248 28.9117C25.601 28.9292 25.2773 28.9537 24.9518 28.9362C24.9378 28.9362 23.9578 28.784 23.9578 28.784C21.4697 28.1295 19.1687 26.9035 17.2378 25.2035C16.8423 24.8552 16.4765 24.4807 16.102 24.108C14.5445 22.5592 13.3685 20.888 12.6545 19.3095C12.2891 18.5347 12.0917 17.6914 12.0753 16.835C12.0681 15.7725 12.4154 14.7379 13.0623 13.895C13.19 13.7305 13.3108 13.559 13.519 13.3612C13.7413 13.1512 13.8813 13.0392 14.0335 12.9622C14.2359 12.8608 14.4568 12.8013 14.6828 12.7872L14.6845 12.789Z" fill="white"/>
</svg>
